<svg width="364" height="364" viewBox="0 0 364 364" fill="none" xmlns="http://www.w3.org/2000/svg">
<circle cx="182" cy="182" r="177" fill="white" stroke="#FE875F" stroke-width="10"/>
<path d="M271.137 282.848C271.137 288.512 268.842 293.248 264.252 297.057C259.662 300.865 254.34 302.77 248.285 302.77C242.621 302.77 237.836 302.086 233.93 300.719C226.312 298.082 218.793 292.711 211.371 284.605C207.953 286.852 202.631 288.854 195.404 290.611C188.275 292.467 182.172 293.395 177.094 293.395C152.289 293.395 131.977 282.652 116.156 261.168C101.508 241.246 94.1836 217.516 94.1836 189.977C94.1836 167.711 98.2363 148.229 106.342 131.529C114.154 115.416 124.652 103.941 137.836 97.1055C139.594 96.3242 140.766 95.9336 141.352 95.9336C142.035 95.9336 142.377 96.2754 142.377 96.959C142.377 98.0332 141.645 99.2539 140.18 100.621C134.809 105.309 130.463 110.24 127.143 115.416C122.553 122.74 119.086 131.48 116.742 141.637C114.008 153.746 112.641 168.883 112.641 187.047C112.641 200.914 115.863 214.977 122.309 229.234C128.266 242.32 135.395 252.477 143.695 259.703C146.723 255.895 150.678 252.525 155.561 249.596C162.689 245.396 170.453 243.297 178.852 243.297C190.473 243.297 200.775 247.398 209.76 255.602C215.131 261.266 218.988 265.27 221.332 267.613C229.926 260.191 236.469 251.744 240.961 242.271C246.82 229.869 249.75 214.684 249.75 196.715C249.75 168.688 242.426 143.688 227.777 121.715C213.715 100.621 198.578 90.0742 182.367 90.0742C175.824 90.0742 170.6 91.7344 166.693 95.0547C162.885 98.2773 160.98 102.574 160.98 107.945C160.98 111.07 161.908 113.951 163.764 116.588C165.619 119.127 168.061 120.396 171.088 120.396C171.771 120.396 172.504 120.348 173.285 120.25C174.066 120.152 174.945 119.762 175.922 119.078C176.996 118.297 177.826 117.418 178.412 116.441C179.096 115.367 179.438 114.293 179.438 113.219C179.828 112.145 180.316 111.607 180.902 111.607C181.391 111.607 181.928 112.291 182.514 113.658C183.197 114.928 183.539 116.979 183.539 119.811C183.539 120.494 183.441 121.422 183.246 122.594C182.66 126.305 180.902 129.43 177.973 131.969C175.043 134.508 171.527 135.777 167.426 135.777C161.176 135.777 156.049 133.434 152.045 128.746C148.041 124.059 146.039 118.395 146.039 111.754C146.039 101.891 150.287 93.8828 158.783 87.7305C166.4 82.2617 175.336 79.5273 185.59 79.5273C209.906 79.5273 229.779 90.2695 245.209 111.754C259.76 131.969 267.035 156.48 267.035 185.289C267.035 203.648 263.031 221.324 255.023 238.316C247.602 254.039 238.227 266.344 226.898 275.23C233.734 282.75 238.568 287.438 241.4 289.293C244.232 291.246 247.016 292.223 249.75 292.223C253.168 292.223 255.805 291.197 257.66 289.146C259.223 287.486 260.004 285.582 260.004 283.434C260.004 281.676 259.613 280.162 258.832 278.893C258.148 277.525 257.172 276.695 255.902 276.402C254.34 276.402 253.266 276.402 252.68 276.402C251.605 276.402 251.068 276.207 251.068 275.816C251.068 275.523 251.508 274.938 252.387 274.059C254.145 272.301 256.391 271.422 259.125 271.422C262.934 271.422 265.961 272.643 268.207 275.084C270.16 277.232 271.137 279.82 271.137 282.848ZM204.34 275.523C198.773 268.395 195.453 264.293 194.379 263.219C189.789 258.824 184.418 255.895 178.266 254.43C175.629 253.844 173.139 253.551 170.795 253.551C165.619 253.551 160.883 254.918 156.586 257.652C153.559 259.508 151.02 261.852 148.969 264.684C153.266 268.199 159.125 271.227 166.547 273.766C173.969 276.305 180.414 277.574 185.883 277.574C189.887 277.574 193.305 277.477 196.137 277.281C199.066 276.988 201.801 276.402 204.34 275.523Z" fill="#FE875F"/>
</svg>
