<svg width="751" height="185" viewBox="0 0 751 185" fill="none" xmlns="http://www.w3.org/2000/svg">
<path d="M118.758 137.898C118.758 141.674 117.228 144.832 114.168 147.371C111.108 149.91 107.56 151.18 103.523 151.18C99.7474 151.18 96.5573 150.724 93.9531 149.812C88.875 148.055 83.862 144.474 78.9141 139.07C76.6354 140.568 73.0872 141.902 68.2695 143.074C63.5169 144.311 59.4479 144.93 56.0625 144.93C39.526 144.93 25.9844 137.768 15.4375 123.445C5.67188 110.164 0.789062 94.3438 0.789062 75.9844C0.789062 61.1406 3.49089 48.1523 8.89453 37.0195C14.1029 26.2773 21.1016 18.6276 29.8906 14.0703C31.0625 13.5495 31.8438 13.2891 32.2344 13.2891C32.6901 13.2891 32.918 13.5169 32.918 13.9727C32.918 14.6888 32.4297 15.5026 31.4531 16.4141C27.8724 19.5391 24.9753 22.8268 22.7617 26.2773C19.7018 31.1602 17.3906 36.987 15.8281 43.7578C14.0052 51.8307 13.0938 61.9219 13.0938 74.0312C13.0938 83.276 15.2422 92.651 19.5391 102.156C23.5104 110.88 28.263 117.651 33.7969 122.469C35.8151 119.93 38.4518 117.684 41.707 115.73C46.4596 112.931 51.6354 111.531 57.2344 111.531C64.9818 111.531 71.8503 114.266 77.8398 119.734C81.4206 123.51 83.9922 126.18 85.5547 127.742C91.2839 122.794 95.6458 117.163 98.6406 110.848C102.547 102.579 104.5 92.4557 104.5 80.4766C104.5 61.7917 99.6172 45.125 89.8516 30.4766C80.4766 16.4141 70.3854 9.38281 59.5781 9.38281C55.2161 9.38281 51.7331 10.4896 49.1289 12.7031C46.5898 14.8516 45.3203 17.7161 45.3203 21.2969C45.3203 23.3802 45.9388 25.3008 47.1758 27.0586C48.4128 28.7513 50.0404 29.5977 52.0586 29.5977C52.5143 29.5977 53.0026 29.5651 53.5234 29.5C54.0443 29.4349 54.6302 29.1745 55.2812 28.7188C55.9974 28.1979 56.5508 27.612 56.9414 26.9609C57.3971 26.2448 57.625 25.5286 57.625 24.8125C57.8854 24.0964 58.2109 23.7383 58.6016 23.7383C58.9271 23.7383 59.2852 24.194 59.6758 25.1055C60.1315 25.9518 60.3594 27.319 60.3594 29.207C60.3594 29.6628 60.2943 30.2812 60.1641 31.0625C59.7734 33.5365 58.6016 35.6198 56.6484 37.3125C54.6953 39.0052 52.3516 39.8516 49.6172 39.8516C45.4505 39.8516 42.0326 38.2891 39.3633 35.1641C36.694 32.0391 35.3594 28.263 35.3594 23.8359C35.3594 17.2604 38.1914 11.9219 43.8555 7.82031C48.9336 4.17448 54.8906 2.35156 61.7266 2.35156C77.9375 2.35156 91.1862 9.51302 101.473 23.8359C111.173 37.3125 116.023 53.6536 116.023 72.8594C116.023 85.099 113.354 96.8828 108.016 108.211C103.068 118.693 96.8177 126.896 89.2656 132.82C93.8229 137.833 97.0456 140.958 98.9336 142.195C100.822 143.497 102.677 144.148 104.5 144.148C106.779 144.148 108.536 143.465 109.773 142.098C110.815 140.991 111.336 139.721 111.336 138.289C111.336 137.117 111.076 136.108 110.555 135.262C110.099 134.35 109.448 133.797 108.602 133.602C107.56 133.602 106.844 133.602 106.453 133.602C105.737 133.602 105.379 133.471 105.379 133.211C105.379 133.016 105.672 132.625 106.258 132.039C107.43 130.867 108.927 130.281 110.75 130.281C113.289 130.281 115.307 131.095 116.805 132.723C118.107 134.155 118.758 135.88 118.758 137.898ZM74.2266 133.016C70.5156 128.263 68.3021 125.529 67.5859 124.812C64.526 121.883 60.9453 119.93 56.8438 118.953C55.0859 118.562 53.4258 118.367 51.8633 118.367C48.4128 118.367 45.2552 119.279 42.3906 121.102C40.3724 122.339 38.6797 123.901 37.3125 125.789C40.1771 128.133 44.0833 130.151 49.0312 131.844C53.9792 133.536 58.276 134.383 61.9219 134.383C64.5911 134.383 66.8698 134.318 68.7578 134.188C70.7109 133.992 72.5339 133.602 74.2266 133.016ZM226.57 135.75C226.44 135.945 225.626 136.629 224.129 137.801C223.478 138.322 222.729 139.005 221.883 139.852C221.036 140.698 220.288 141.512 219.637 142.293C219.507 142.488 219.083 143.042 218.367 143.953C218.107 144.409 217.781 144.637 217.391 144.637C217 144.637 216.544 144.474 216.023 144.148C213.484 142.521 211.108 140.372 208.895 137.703C205.704 133.797 204.109 129.826 204.109 125.789C201.961 130.281 198.576 134.35 193.953 137.996C188.029 142.618 181.779 144.93 175.203 144.93C163.289 144.93 154.109 140.991 147.664 133.113C142.065 126.277 139.266 117.651 139.266 107.234C139.266 101.18 140.014 95.4505 141.512 90.0469C142.749 85.4896 144.604 80.7695 147.078 75.8867C147.99 74.1289 150.268 70.0599 153.914 63.6797C154.24 62.9635 153.784 62.1823 152.547 61.3359C151.766 60.8151 150.268 60.099 148.055 59.1875C146.883 58.6016 145.711 58.0156 144.539 57.4297C144.018 57.2344 143.758 56.9089 143.758 56.4531C143.758 55.9974 144.279 55.6393 145.32 55.3789C146.427 55.1185 147.566 54.8581 148.738 54.5977C150.757 54.1419 152.938 53.4909 155.281 52.6445C157.69 51.7331 159.936 50.724 162.02 49.6172C164.103 48.5104 166.154 47.4036 168.172 46.2969C168.693 46.1016 169.051 46.0039 169.246 46.0039C169.507 46.0039 169.734 46.1667 169.93 46.4922C170.19 46.8177 170.223 47.306 170.027 47.957C169.832 48.543 169.604 48.9661 169.344 49.2266C163.549 56.7135 159.09 64.2982 155.965 71.9805C152.254 81.0299 150.398 90.112 150.398 99.2266C150.398 109.643 152.775 118.204 157.527 124.91C162.345 131.616 168.758 134.969 176.766 134.969C182.234 134.969 187.508 133.309 192.586 129.988C197.729 126.668 201.245 122.664 203.133 117.977V58.2109C203.133 57.0391 202.319 55.7044 200.691 54.207C199.389 53.1654 198.12 52.0911 196.883 50.9844C196.492 50.5938 196.297 50.2031 196.297 49.8125C196.297 49.0312 196.948 48.6406 198.25 48.6406C198.966 48.6406 200.854 48.7383 203.914 48.9336C206.974 49.1289 208.797 49.2266 209.383 49.2266C212.052 49.2266 214.103 49.194 215.535 49.1289C217.033 48.9987 218.758 48.8359 220.711 48.6406C221.883 48.6406 222.469 49.0638 222.469 49.9102C222.469 50.3659 222.273 50.7891 221.883 51.1797C220.385 52.3516 219.181 53.3281 218.27 54.1094C216.512 55.6068 215.633 56.974 215.633 58.2109V115.828C215.633 121.297 217.033 125.626 219.832 128.816C220.743 129.858 222.859 131.453 226.18 133.602C226.635 133.862 226.863 134.285 226.863 134.871C226.863 135.132 226.766 135.424 226.57 135.75ZM334.969 121.297C333.276 126.831 329.207 132.007 322.762 136.824C315.21 142.488 306.974 145.32 298.055 145.32C292.326 145.32 287.247 144.702 282.82 143.465C277.742 142.033 272.924 139.591 268.367 136.141C266.544 138.419 264.884 140.893 263.387 143.562C261.499 146.883 260.555 149.292 260.555 150.789C260.555 152.612 261.043 153.882 262.02 154.598C262.671 155.053 263.745 155.281 265.242 155.281C265.698 155.281 266.154 155.216 266.609 155.086C267 154.956 267.391 154.826 267.781 154.695C268.042 154.565 268.27 154.565 268.465 154.695C268.921 154.956 269.018 155.477 268.758 156.258C268.367 157.82 267.586 159.253 266.414 160.555C264.852 162.247 263.029 163.094 260.945 163.094C258.732 163.094 256.909 162.28 255.477 160.652C254.044 159.025 253.328 156.909 253.328 154.305C253.328 152.221 254.044 149.682 255.477 146.688C255.867 145.841 258.667 141.219 263.875 132.82C259.057 127.872 255.346 122.501 252.742 116.707C249.878 110.262 248.445 103.328 248.445 95.9062C248.445 82.2344 252.872 70.418 261.727 60.457C270.646 50.4961 281.714 45.5156 294.93 45.5156C300.203 45.5156 305.607 46.7852 311.141 49.3242C314.201 50.8216 317.26 52.2865 320.32 53.7188C320.906 53.9792 321.753 54.1745 322.859 54.3047C323.966 54.4349 325.073 54.5 326.18 54.5L329.109 54.3047C329.826 54.3047 330.184 54.5977 330.184 55.1836C330.184 55.6393 329.956 55.9974 329.5 56.2578C328.458 56.9089 327.319 57.7878 326.082 58.8945C324.389 60.3268 322.924 61.7917 321.688 63.2891C315.372 70.3203 308.048 79.5326 299.715 90.9258C291.382 102.319 283.536 113.745 276.18 125.203C280.021 127.938 283.927 130.053 287.898 131.551C292.586 133.309 297.469 134.188 302.547 134.188C309.578 134.188 315.372 132.853 319.93 130.184C323.25 128.23 326.961 124.747 331.062 119.734C331.453 119.148 331.909 118.53 332.43 117.879C332.951 117.163 333.536 116.87 334.188 117C335.034 117.195 335.457 117.814 335.457 118.855C335.457 119.637 335.294 120.451 334.969 121.297ZM308.211 63.6797C308.211 59.8385 306.128 56.8438 301.961 54.6953C298.445 52.8724 294.214 51.9609 289.266 51.9609C280.021 51.9609 272.404 55.8997 266.414 63.7773C260.815 71.1992 258.016 80.0208 258.016 90.2422C258.016 96.2969 259.48 102.352 262.41 108.406C264.884 113.549 267.977 117.911 271.688 121.492C276.115 114.917 279.565 109.806 282.039 106.16C286.01 100.301 289.396 95.3854 292.195 91.4141C295.776 86.3359 299.357 81.2578 302.938 76.1797C306.453 70.7109 308.211 66.5443 308.211 63.6797ZM431.648 82.0391C431.648 91.6745 429.956 100.919 426.57 109.773C423.185 118.562 418.172 126.701 411.531 134.188C411.727 134.188 412.052 134.22 412.508 134.285C413.029 134.285 413.712 134.285 414.559 134.285C416.577 134.285 418.465 134.188 420.223 133.992C421.98 133.732 423.706 133.048 425.398 131.941C427.091 130.574 428.198 129.695 428.719 129.305C428.849 129.174 429.044 129.077 429.305 129.012C429.5 128.947 429.63 128.914 429.695 128.914C430.411 128.914 430.607 129.5 430.281 130.672C430.151 131.648 430.021 132.82 429.891 134.188C429.76 135.555 429.695 136.466 429.695 136.922C429.695 137.898 429.728 138.94 429.793 140.047C429.858 141.089 429.956 142.195 430.086 143.367C430.346 144.669 430.086 145.32 429.305 145.32C428.979 145.32 428.654 145.19 428.328 144.93C426.375 143.823 425.008 143.107 424.227 142.781C422.729 142.195 421.297 141.805 419.93 141.609C418.628 141.414 416.577 141.316 413.777 141.316C411.889 141.316 410.392 141.349 409.285 141.414C408.178 141.479 406.714 141.674 404.891 142C403.003 142.326 402.059 141.74 402.059 140.242C402.059 139.786 402.156 139.396 402.352 139.07C405.867 133.602 408.602 129.077 410.555 125.496C413.615 119.832 415.893 114.559 417.391 109.676C419.214 103.686 420.125 97.599 420.125 91.4141C420.125 81.1927 417.846 72.8919 413.289 66.5117C408.536 59.806 402.091 56.4531 393.953 56.4531C388.484 56.4531 383.569 57.9831 379.207 61.043C375.301 63.7773 372.078 67.5859 369.539 72.4688V132.43C369.539 133.602 370.255 134.806 371.688 136.043C372.924 137.085 374.161 138.094 375.398 139.07C376.115 139.786 376.473 140.438 376.473 141.023C376.473 141.674 375.919 142 374.812 142C374.487 142 373.022 141.902 370.418 141.707C367.814 141.512 365.438 141.414 363.289 141.414C360.815 141.414 358.829 141.479 357.332 141.609C355.9 141.74 354.24 141.87 352.352 142C350.789 142 350.008 141.642 350.008 140.926C350.008 140.47 350.301 139.917 350.887 139.266C351.473 138.615 352.417 137.768 353.719 136.727C355.932 135.034 357.039 133.602 357.039 132.43V74.6172C357.039 69.0833 355.379 64.5911 352.059 61.1406C350.626 59.6432 348.12 57.9505 344.539 56.0625C344.018 55.8021 343.758 55.444 343.758 54.9883C343.758 54.5326 343.953 54.1094 344.344 53.7188C345.19 52.9375 345.906 52.319 346.492 51.8633C347.078 51.3424 347.827 50.6263 348.738 49.7148C349.65 48.8034 350.366 48.0547 350.887 47.4688C351.408 46.8828 351.896 46.2969 352.352 45.7109C352.612 45.3854 352.97 45.2227 353.426 45.2227C353.816 45.2227 354.109 45.3203 354.305 45.5156C356.648 47.4036 359.122 50.0404 361.727 53.4258C365.307 58.0482 367.391 62.0521 367.977 65.4375C370.841 60.75 374.324 56.681 378.426 53.2305C384.546 48.0872 390.763 45.5156 397.078 45.5156C408.797 45.5156 417.814 49.9102 424.129 58.6992C429.142 65.6654 431.648 73.4453 431.648 82.0391ZM540.242 118.367C540.242 119.279 539.982 120.385 539.461 121.688C537.378 126.961 533.667 131.779 528.328 136.141C520.971 142.13 512.443 145.125 502.742 145.125C488.484 145.125 477.156 140.828 468.758 132.234C460.164 123.445 455.867 111.336 455.867 95.9062C455.867 82.4297 460.717 70.6784 470.418 60.6523C480.184 50.5612 491.87 45.5156 505.477 45.5156C513.289 45.5156 520.125 47.599 525.984 51.7656C532.365 56.3229 535.555 62.1172 535.555 69.1484C535.555 75.0729 533.667 80.0859 529.891 84.1875C526.18 88.224 521.557 90.2422 516.023 90.2422C511.336 90.2422 507.299 88.875 503.914 86.1406C500.268 83.2109 498.445 79.5 498.445 75.0078C498.445 72.0781 499.422 69.3438 501.375 66.8047C503.068 64.526 504.826 63.1589 506.648 62.7031C507.365 62.4427 507.918 62.5078 508.309 62.8984C508.699 63.2891 508.797 63.7448 508.602 64.2656C508.276 65.1771 508.048 65.9258 507.918 66.5117C507.527 67.8138 507.332 68.9857 507.332 70.0273C507.332 70.7435 507.365 71.2969 507.43 71.6875C507.82 73.7057 508.862 75.2682 510.555 76.375C512.312 77.4167 514.331 77.9375 516.609 77.9375C519.734 77.9375 522.241 76.7982 524.129 74.5195C526.017 72.2409 526.961 69.4089 526.961 66.0234C526.961 61.0755 524.585 57.1693 519.832 54.3047C515.535 51.7005 510.49 50.3984 504.695 50.3984C493.693 50.3984 484.773 54.5977 477.938 62.9961C471.167 71.3294 467.781 81.7786 467.781 94.3438C467.781 105.281 471.264 114.624 478.23 122.371C485.457 130.379 494.409 134.383 505.086 134.383C511.792 134.383 517.358 133.406 521.785 131.453C526.277 129.435 530.867 125.724 535.555 120.32C535.62 120.19 536.01 119.637 536.727 118.66C537.247 117.944 537.703 117.456 538.094 117.195C538.419 117 538.842 117 539.363 117.195C539.949 117.326 540.242 117.716 540.242 118.367ZM639.266 82.0391C639.266 91.6745 637.573 100.919 634.188 109.773C630.802 118.562 625.789 126.701 619.148 134.188C619.344 134.188 619.669 134.22 620.125 134.285C620.646 134.285 621.329 134.285 622.176 134.285C624.194 134.285 626.082 134.188 627.84 133.992C629.598 133.732 631.323 133.048 633.016 131.941C634.708 130.574 635.75 129.728 636.141 129.402C636.596 129.077 636.987 128.914 637.312 128.914C637.833 128.914 638.094 129.37 638.094 130.281C637.898 131.583 637.703 132.885 637.508 134.188C637.378 135.424 637.312 136.336 637.312 136.922C637.312 138.159 637.41 139.559 637.605 141.121C637.801 142.684 637.898 143.628 637.898 143.953C637.898 144.93 637.638 145.418 637.117 145.418C636.857 145.418 636.466 145.255 635.945 144.93C634.513 143.888 633.113 143.107 631.746 142.586C630.379 142.13 629.012 141.805 627.645 141.609C626.277 141.414 624.194 141.316 621.395 141.316C619.507 141.316 618.009 141.349 616.902 141.414C615.796 141.479 614.331 141.674 612.508 142C611.727 142.13 611.108 142.195 610.652 142.195C610.001 142.195 609.578 142.065 609.383 141.805C609.122 141.414 609.057 140.991 609.188 140.535C609.383 140.079 609.643 139.591 609.969 139.07C613.484 133.602 616.219 129.077 618.172 125.496C621.232 119.832 623.51 114.559 625.008 109.676C626.831 103.686 627.742 97.599 627.742 91.4141C627.742 81.2578 625.464 72.957 620.906 66.5117C616.154 59.806 609.708 56.4531 601.57 56.4531C596.167 56.4531 591.251 58.0482 586.824 61.2383C583.048 63.9727 579.826 67.7161 577.156 72.4688V132.43C577.156 133.471 577.84 134.611 579.207 135.848C580.379 136.889 581.583 137.898 582.82 138.875C583.602 139.656 583.992 140.307 583.992 140.828C583.992 141.609 583.276 142 581.844 142C580.672 142 579.695 141.967 578.914 141.902C574.878 141.577 572.208 141.414 570.906 141.414C568.562 141.414 566.642 141.479 565.145 141.609C563.712 141.74 562.052 141.87 560.164 142C558.602 142 557.82 141.609 557.82 140.828C557.82 140.438 558.146 139.852 558.797 139.07C560.424 137.768 561.629 136.759 562.41 136.043C563.908 134.741 564.656 133.536 564.656 132.43V27.9375C564.656 26.0495 564.591 24.5521 564.461 23.4453C564.331 22.3385 563.549 21.8828 562.117 22.0781C561.401 22.2083 560.197 22.8594 558.504 24.0312C556.811 25.138 555.672 25.7891 555.086 25.9844C554.109 26.3099 553.621 25.9518 553.621 24.9102C553.621 24.5846 553.816 24.1289 554.207 23.543C554.598 22.957 556.388 21.1341 559.578 18.0742C562.117 15.6003 564.135 13.6146 565.633 12.1172C567.846 9.90365 570.255 7.26693 572.859 4.20703C574.682 2.05859 575.854 0.789062 576.375 0.398438C576.505 0.268229 576.701 0.170573 576.961 0.105469C577.156 0.0403646 577.319 0.0078125 577.449 0.0078125C578.035 0.0078125 578.328 0.528646 578.328 1.57031C578.003 3.65365 577.71 6.25781 577.449 9.38281C577.254 12.4427 577.156 15.6979 577.156 19.1484V64.0703C580.021 59.3828 583.243 55.5417 586.824 52.5469C592.423 47.8594 598.38 45.5156 604.695 45.5156C616.414 45.5156 625.431 49.9102 631.746 58.6992C636.759 65.6654 639.266 73.4453 639.266 82.0391ZM749.617 51.375C748.055 52.7422 746.85 53.7839 746.004 54.5C744.376 55.9323 743.562 57.1693 743.562 58.2109V136.727C743.562 151.18 739.526 162.931 731.453 171.98C723.771 180.639 714.201 184.969 702.742 184.969C697.599 184.969 693.497 184.318 690.438 183.016C686.401 181.323 684.383 178.589 684.383 174.812C684.383 172.013 685.88 169.734 688.875 167.977C691.87 166.284 694.539 165.568 696.883 165.828C697.859 165.828 698.348 166.186 698.348 166.902C698.348 167.163 698.185 167.488 697.859 167.879C697.599 168.335 697.371 168.758 697.176 169.148C696.785 169.93 696.59 170.678 696.59 171.395C696.59 171.915 696.688 172.469 696.883 173.055C697.339 174.812 698.413 176.18 700.105 177.156C701.798 178.198 703.719 178.719 705.867 178.719C713.81 178.719 720.092 175.171 724.715 168.074C728.947 161.564 731.062 153.263 731.062 143.172V125.789C728.914 130.281 725.626 134.35 721.199 137.996C715.535 142.618 709.513 144.93 703.133 144.93C691.219 144.93 682.039 140.991 675.594 133.113C669.995 126.277 667.195 117.651 667.195 107.234C667.195 101.18 667.944 95.5482 669.441 90.3398C670.678 86.043 672.534 81.5182 675.008 76.7656C675.203 76.375 677.482 72.4036 681.844 64.8516C682.169 64.1354 681.714 63.3542 680.477 62.5078C679.695 61.987 678.198 61.2708 675.984 60.3594C674.812 59.7734 673.641 59.1875 672.469 58.6016C671.948 58.4062 671.688 58.0807 671.688 57.625C671.688 57.1693 672.241 56.8112 673.348 56.5508C674.52 56.2904 675.691 56.0299 676.863 55.7695C678.882 55.3138 681.095 54.6302 683.504 53.7188C685.913 52.8073 688.094 51.8307 690.047 50.7891C692.065 49.6823 694.083 48.5755 696.102 47.4688C696.492 47.2734 696.85 47.1758 697.176 47.1758C697.957 47.1758 698.348 47.5339 698.348 48.25C698.348 48.4453 698.217 48.8034 697.957 49.3242C697.697 49.7799 697.143 50.5612 696.297 51.668C695.776 52.3841 695.125 53.263 694.344 54.3047C689.331 61.2708 685.522 68.1068 682.918 74.8125C679.858 82.7552 678.328 90.8932 678.328 99.2266C678.328 109.643 680.704 118.204 685.457 124.91C690.275 131.616 696.688 134.969 704.695 134.969C710.294 134.969 715.535 133.374 720.418 130.184C725.301 126.928 728.849 122.859 731.062 117.977V58.2109C731.062 56.974 730.346 55.7044 728.914 54.4023C727.612 53.3607 726.31 52.2865 725.008 51.1797C724.552 50.724 724.324 50.2357 724.324 49.7148C724.324 48.9987 724.878 48.6406 725.984 48.6406C726.31 48.6406 727.742 48.7383 730.281 48.9336C732.82 49.1289 735.164 49.2266 737.312 49.2266C739.852 49.2266 741.837 49.194 743.27 49.1289C744.767 48.9987 746.492 48.8359 748.445 48.6406C749.747 48.6406 750.398 49.0312 750.398 49.8125C750.398 50.3333 750.138 50.8542 749.617 51.375Z" fill="black"/>
</svg>
